<svg width="19" height="17" viewBox="0 0 19 17" fill="none" xmlns="http://www.w3.org/2000/svg">
<path d="M17.2897 13.3449L10.623 1.67825C10.4776 1.42175 10.2668 1.20841 10.0121 1.05997C9.75738 0.911541 9.46783 0.833336 9.173 0.833336C8.87818 0.833336 8.58863 0.911541 8.3339 1.05997C8.07917 1.20841 7.86837 1.42175 7.723 1.67825L1.05634 13.3449C0.909406 13.5994 0.832361 13.8882 0.833012 14.182C0.833663 14.4758 0.911986 14.7643 1.06004 15.0181C1.2081 15.2719 1.42063 15.4821 1.67608 15.6273C1.93154 15.7725 2.22084 15.8476 2.51467 15.8449H15.848C16.1404 15.8446 16.4276 15.7674 16.6807 15.621C16.9339 15.4746 17.144 15.2642 17.2901 15.0108C17.4362 14.7575 17.513 14.4702 17.513 14.1778C17.5129 13.8854 17.4359 13.5982 17.2897 13.3449Z" stroke="white" stroke-width="1.66667" stroke-linecap="round" stroke-linejoin="round"/>
<path d="M9.18164 5.84492V9.17825" stroke="white" stroke-width="1.66667" stroke-linecap="round" stroke-linejoin="round"/>
<path d="M9.18164 12.5116H9.18997" stroke="white" stroke-width="1.66667" stroke-linecap="round" stroke-linejoin="round"/>
</svg>
