<svg width="26" height="27" viewBox="0 0 26 27" fill="none" xmlns="http://www.w3.org/2000/svg">
<path d="M1 11.6049C0.999907 11.2374 1.08445 10.8743 1.24772 10.5409C1.41099 10.2076 1.64906 9.91195 1.94533 9.67472L11.2787 2.09683C11.76 1.71144 12.3698 1.5 13 1.5C13.6302 1.5 14.24 1.71144 14.7213 2.09683L24.0547 9.67472C24.3509 9.91195 24.589 10.2076 24.7523 10.5409C24.9156 10.8743 25.0001 11.2374 25 11.6049V22.9736C25 23.6437 24.719 24.2862 24.219 24.76C23.7189 25.2338 23.0406 25.5 22.3333 25.5H3.66667C2.95942 25.5 2.28115 25.2338 1.78105 24.76C1.28095 24.2862 1 23.6437 1 22.9736V11.6049Z" stroke="#909090" stroke-width="1.5" stroke-linecap="round" stroke-linejoin="round"/>
</svg>
