<svg width="29" height="31" viewBox="0 0 29 31" fill="none" xmlns="http://www.w3.org/2000/svg">
<path d="M25.875 29.8C26.306 29.8 26.7193 29.6278 27.024 29.3213C27.3288 29.0149 27.5 28.5992 27.5 28.1657V26.1294C27.5065 21.5436 21.0422 17.9514 14.5 17.9514C7.95775 17.9514 1.5 21.5436 1.5 26.1294V28.1657C1.5 28.5992 1.67121 29.0149 1.97595 29.3213C2.2807 29.6278 2.69402 29.8 3.125 29.8H25.875ZM20.3565 7.08998C20.3565 7.86346 20.205 8.62937 19.9107 9.34397C19.6164 10.0586 19.185 10.7079 18.6412 11.2548C18.0973 11.8017 17.4517 12.2356 16.7412 12.5316C16.0306 12.8276 15.2691 12.9799 14.5 12.9799C13.7309 12.9799 12.9694 12.8276 12.2588 12.5316C11.5483 12.2356 10.9027 11.8017 10.3588 11.2548C9.815 10.7079 9.38361 10.0586 9.0893 9.34397C8.79498 8.62937 8.6435 7.86346 8.6435 7.08998C8.6435 5.52786 9.26052 4.02973 10.3588 2.92514C11.4571 1.82056 12.9468 1.20001 14.5 1.20001C16.0532 1.20001 17.5429 1.82056 18.6412 2.92514C19.7395 4.02973 20.3565 5.52786 20.3565 7.08998Z" stroke="#909090" stroke-width="1.5" stroke-linecap="round" stroke-linejoin="round"/>
</svg>
