<svg width="19" height="17" viewBox="0 0 19 17" fill="none" xmlns="http://www.w3.org/2000/svg">
<path d="M12.4997 15.8333V14.1667C12.4997 13.2826 12.1485 12.4348 11.5234 11.8096C10.8982 11.1845 10.0504 10.8333 9.16634 10.8333H4.16634C3.28229 10.8333 2.43444 11.1845 1.80932 11.8096C1.1842 12.4348 0.833008 13.2826 0.833008 14.1667V15.8333" stroke="#FFC6B6" stroke-width="1.66667" stroke-linecap="round" stroke-linejoin="round"/>
<path d="M12.499 0.939987C13.2138 1.1253 13.8469 1.54271 14.2988 2.12671C14.7507 2.7107 14.9959 3.42823 14.9959 4.16665C14.9959 4.90508 14.7507 5.6226 14.2988 6.2066C13.8469 6.7906 13.2138 7.20801 12.499 7.39332" stroke="#FFC6B6" stroke-width="1.66667" stroke-linecap="round" stroke-linejoin="round"/>
<path d="M17.499 15.8333V14.1667C17.4985 13.4281 17.2527 12.7106 16.8002 12.1269C16.3477 11.5432 15.7141 11.1263 14.999 10.9417" stroke="#FFC6B6" stroke-width="1.66667" stroke-linecap="round" stroke-linejoin="round"/>
<path d="M6.66634 7.49999C8.50729 7.49999 9.99967 6.00761 9.99967 4.16666C9.99967 2.32571 8.50729 0.833328 6.66634 0.833328C4.82539 0.833328 3.33301 2.32571 3.33301 4.16666C3.33301 6.00761 4.82539 7.49999 6.66634 7.49999Z" stroke="#FFC6B6" stroke-width="1.66667" stroke-linecap="round" stroke-linejoin="round"/>
</svg>
