<svg width="14" height="15" viewBox="0 0 14 15" fill="none" xmlns="http://www.w3.org/2000/svg">
<path d="M1.33593 8.6684C1.20978 8.66883 1.08609 8.63346 0.979235 8.56639C0.872383 8.49932 0.786755 8.4033 0.732299 8.28951C0.677843 8.17571 0.656794 8.04879 0.671599 7.92351C0.686403 7.79822 0.736452 7.67971 0.815932 7.58173L7.41593 0.781734C7.46544 0.724588 7.53291 0.685971 7.60725 0.672222C7.6816 0.658473 7.75842 0.670409 7.82509 0.70607C7.89176 0.741731 7.94432 0.798998 7.97416 0.868472C8.00399 0.937946 8.00932 1.0155 7.98927 1.0884L6.70927 5.10173C6.67152 5.20275 6.65885 5.31141 6.67233 5.41841C6.68581 5.5254 6.72504 5.62752 6.78666 5.71602C6.84828 5.80452 6.93045 5.87674 7.02612 5.92651C7.12178 5.97627 7.2281 6.00208 7.33593 6.00173H12.0026C12.1288 6.0013 12.2524 6.03668 12.3593 6.10375C12.4661 6.17082 12.5518 6.26683 12.6062 6.38063C12.6607 6.49443 12.6817 6.62134 12.6669 6.74663C12.6521 6.87191 12.6021 6.99043 12.5226 7.0884L5.9226 13.8884C5.87309 13.9455 5.80563 13.9842 5.73128 13.9979C5.65693 14.0117 5.58012 13.9997 5.51345 13.9641C5.44678 13.9284 5.39421 13.8711 5.36438 13.8017C5.33454 13.7322 5.32921 13.6546 5.34927 13.5817L6.62927 9.5684C6.66701 9.46738 6.67969 9.35872 6.66621 9.25173C6.65273 9.14474 6.61349 9.04261 6.55187 8.95412C6.49025 8.86562 6.40808 8.79339 6.31242 8.74363C6.21675 8.69386 6.11044 8.66805 6.0026 8.6684H1.33593Z" stroke="white" stroke-width="1.33333" stroke-linecap="round" stroke-linejoin="round"/>
</svg>
